<svg width="36" height="36" viewBox="0 0 36 36" fill="none" xmlns="http://www.w3.org/2000/svg">
<g clip-path="url(#clip0_520_2042)">
<path d="M24.4285 3.85718H28.2857C28.9677 3.85718 29.6217 4.1281 30.104 4.61033C30.5862 5.09257 30.8571 5.74662 30.8571 6.42861V32.1429C30.8571 32.8249 30.5862 33.4789 30.104 33.9612C29.6217 34.4434 28.9677 34.7143 28.2857 34.7143H7.71425C7.03227 34.7143 6.37821 34.4434 5.89598 33.9612C5.41374 33.4789 5.14282 32.8249 5.14282 32.1429V6.42861C5.14282 5.74662 5.41374 5.09257 5.89598 4.61033C6.37821 4.1281 7.03227 3.85718 7.71425 3.85718H11.5714" stroke="white" stroke-width="3" stroke-linecap="round" stroke-linejoin="round"/>
<path d="M21.857 1.28577H14.1427C12.7226 1.28577 11.5713 2.43703 11.5713 3.8572V5.14291C11.5713 6.56307 12.7226 7.71434 14.1427 7.71434H21.857C23.2772 7.71434 24.4284 6.56307 24.4284 5.14291V3.8572C24.4284 2.43703 23.2772 1.28577 21.857 1.28577Z" stroke="white" stroke-width="3" stroke-linecap="round" stroke-linejoin="round"/>
<path d="M11.5713 21.8572L16.7141 25.7143L23.1427 15.4286" stroke="white" stroke-width="3" stroke-linecap="round" stroke-linejoin="round"/>
</g>
<defs>
<clipPath id="clip0_520_2042">
<rect width="36" height="36" fill="white"/>
</clipPath>
</defs>
</svg>
